# xmcd CD database file
#
# Track frame offsets:
#	150
#	18203
#	33103
#	62543
#	83930
#	115108
#	141071
#	166857
#	179675
#	199674
#	224905
#	252750
#	280794
#	296840
#	297706
#
# Disc length: 4043 seconds
#
# Revision: 1
# Processed by: cddbd v1.5.2PL0 Copyright (c) Steve Scherf et al.
# Submitted via: CDex 1.70beta2
#
DISCID=e50fc90f
DTITLE=ERIC TERUEL TRIO - TRABOULES PURSUIT
DYEAR=1999
DGENRE=Jazz
TTITLE0=CLARA WIECK
TTITLE1=EPICURIAN MODE
TTITLE2=REVER D'AILES
TTITLE3=INNER REVOLUTION
TTITLE4=ILLUSIONS
TTITLE5=TRABOULES PURSUIT
TTITLE6=AVRIL
TTITLE7=PLUME DE MIEL
TTITLE8=HELENE ET JULIETTE
TTITLE9=THE HIGH CROSS
TTITLE10=FRIEND OF THE ELVES
TTITLE11=BLUE LANTERN #26
TTITLE12=WHO CAN I TURN TO
TTITLE13=NO SOUND
TTITLE14=WALTZANNAH
EXTD=YEAR: 1999
EXTT0=
EXTT1=
EXTT2=
EXTT3=
EXTT4=
EXTT5=
EXTT6=
EXTT7=
EXTT8=
EXTT9=
EXTT10=
EXTT11=
EXTT12=
EXTT13=
EXTT14=
PLAYORDER=
